<svg id="visual" viewBox="0 0 900 600" width="900" height="600" xmlns="http://www.w3.org/2000/svg" xmlns:xlink="http://www.w3.org/1999/xlink" version="1.1"><rect x="0" y="0" width="900" height="600" fill="#001220"></rect><path d="M0 394L8.3 395.5C16.7 397 33.3 400 50 412.8C66.7 425.7 83.3 448.3 100 455C116.7 461.7 133.3 452.3 150 442.8C166.7 433.3 183.3 423.7 200 420.8C216.7 418 233.3 422 250 425.2C266.7 428.3 283.3 430.7 300 434.7C316.7 438.7 333.3 444.3 350 442.2C366.7 440 383.3 430 400 432C416.7 434 433.3 448 450 443C466.7 438 483.3 414 500 413.2C516.7 412.3 533.3 434.7 550 442.5C566.7 450.3 583.3 443.7 600 438.7C616.7 433.7 633.3 430.3 650 435.5C666.7 440.7 683.3 454.3 700 451.2C716.7 448 733.3 428 750 427.3C766.7 426.7 783.3 445.3 800 447C816.7 448.7 833.3 433.3 850 434.7C866.7 436 883.3 454 891.7 463L900 472L900 601L891.7 601C883.3 601 866.7 601 850 601C833.3 601 816.7 601 800 601C783.3 601 766.7 601 750 601C733.3 601 716.7 601 700 601C683.3 601 666.7 601 650 601C633.3 601 616.7 601 600 601C583.3 601 566.7 601 550 601C533.3 601 516.7 601 500 601C483.3 601 466.7 601 450 601C433.3 601 416.7 601 400 601C383.3 601 366.7 601 350 601C333.3 601 316.7 601 300 601C283.3 601 266.7 601 250 601C233.3 601 216.7 601 200 601C183.3 601 166.7 601 150 601C133.3 601 116.7 601 100 601C83.3 601 66.7 601 50 601C33.3 601 16.7 601 8.3 601L0 601Z" fill="#fa7268"></path><path d="M0 429L8.3 428.3C16.7 427.7 33.3 426.3 50 428.7C66.7 431 83.3 437 100 440.8C116.7 444.7 133.3 446.3 150 452.2C166.7 458 183.3 468 200 462.7C216.7 457.3 233.3 436.7 250 429C266.7 421.3 283.3 426.7 300 430.2C316.7 433.7 333.3 435.3 350 435.2C366.7 435 383.3 433 400 435.5C416.7 438 433.3 445 450 452.3C466.7 459.7 483.3 467.3 500 466.8C516.7 466.3 533.3 457.7 550 447.5C566.7 437.3 583.3 425.7 600 429.8C616.7 434 633.3 454 650 459.8C666.7 465.7 683.3 457.3 700 459.7C716.7 462 733.3 475 750 471.5C766.7 468 783.3 448 800 439.5C816.7 431 833.3 434 850 434.7C866.7 435.3 883.3 433.7 891.7 432.8L900 432L900 601L891.7 601C883.3 601 866.7 601 850 601C833.3 601 816.7 601 800 601C783.3 601 766.7 601 750 601C733.3 601 716.7 601 700 601C683.3 601 666.7 601 650 601C633.3 601 616.7 601 600 601C583.3 601 566.7 601 550 601C533.3 601 516.7 601 500 601C483.3 601 466.7 601 450 601C433.3 601 416.7 601 400 601C383.3 601 366.7 601 350 601C333.3 601 316.7 601 300 601C283.3 601 266.7 601 250 601C233.3 601 216.7 601 200 601C183.3 601 166.7 601 150 601C133.3 601 116.7 601 100 601C83.3 601 66.7 601 50 601C33.3 601 16.7 601 8.3 601L0 601Z" fill="#f46767"></path><path d="M0 493L8.3 484.2C16.7 475.3 33.3 457.7 50 452.5C66.7 447.3 83.3 454.7 100 460.7C116.7 466.7 133.3 471.3 150 467.7C166.7 464 183.3 452 200 457C216.7 462 233.3 484 250 484C266.7 484 283.3 462 300 454.2C316.7 446.3 333.3 452.7 350 461C366.7 469.3 383.3 479.7 400 477.8C416.7 476 433.3 462 450 457.7C466.7 453.3 483.3 458.7 500 460.8C516.7 463 533.3 462 550 467.8C566.7 473.7 583.3 486.3 600 490.3C616.7 494.3 633.3 489.7 650 490.8C666.7 492 683.3 499 700 494.3C716.7 489.7 733.3 473.3 750 472.2C766.7 471 783.3 485 800 490.2C816.7 495.3 833.3 491.7 850 481.8C866.7 472 883.3 456 891.7 448L900 440L900 601L891.7 601C883.3 601 866.7 601 850 601C833.3 601 816.7 601 800 601C783.3 601 766.7 601 750 601C733.3 601 716.7 601 700 601C683.3 601 666.7 601 650 601C633.3 601 616.7 601 600 601C583.3 601 566.7 601 550 601C533.3 601 516.7 601 500 601C483.3 601 466.7 601 450 601C433.3 601 416.7 601 400 601C383.3 601 366.7 601 350 601C333.3 601 316.7 601 300 601C283.3 601 266.7 601 250 601C233.3 601 216.7 601 200 601C183.3 601 166.7 601 150 601C133.3 601 116.7 601 100 601C83.3 601 66.7 601 50 601C33.3 601 16.7 601 8.3 601L0 601Z" fill="#ee5c67"></path><path d="M0 467L8.3 467.2C16.7 467.3 33.3 467.7 50 469.3C66.7 471 83.3 474 100 475.5C116.7 477 133.3 477 150 482.8C166.7 488.7 183.3 500.3 200 502.3C216.7 504.3 233.3 496.7 250 498.7C266.7 500.7 283.3 512.3 300 513.7C316.7 515 333.3 506 350 497.7C366.7 489.3 383.3 481.7 400 479C416.7 476.3 433.3 478.7 450 482.5C466.7 486.3 483.3 491.7 500 488.8C516.7 486 533.3 475 550 472C566.7 469 583.3 474 600 473.7C616.7 473.3 633.3 467.7 650 469.3C666.7 471 683.3 480 700 489.7C716.7 499.3 733.3 509.7 750 512.3C766.7 515 783.3 510 800 505.3C816.7 500.7 833.3 496.3 850 495.7C866.7 495 883.3 498 891.7 499.5L900 501L900 601L891.7 601C883.3 601 866.7 601 850 601C833.3 601 816.7 601 800 601C783.3 601 766.7 601 750 601C733.3 601 716.7 601 700 601C683.3 601 666.7 601 650 601C633.3 601 616.7 601 600 601C583.3 601 566.7 601 550 601C533.3 601 516.7 601 500 601C483.3 601 466.7 601 450 601C433.3 601 416.7 601 400 601C383.3 601 366.7 601 350 601C333.3 601 316.7 601 300 601C283.3 601 266.7 601 250 601C233.3 601 216.7 601 200 601C183.3 601 166.7 601 150 601C133.3 601 116.7 601 100 601C83.3 601 66.7 601 50 601C33.3 601 16.7 601 8.3 601L0 601Z" fill="#e75167"></path><path d="M0 539L8.3 534.3C16.7 529.7 33.3 520.3 50 519.2C66.7 518 83.3 525 100 525C116.7 525 133.3 518 150 511.7C166.7 505.3 183.3 499.7 200 501.2C216.7 502.7 233.3 511.3 250 518.3C266.7 525.3 283.3 530.7 300 524.8C316.7 519 333.3 502 350 497C366.7 492 383.3 499 400 499.8C416.7 500.7 433.3 495.3 450 500C466.7 504.7 483.3 519.3 500 519.2C516.7 519 533.3 504 550 496.5C566.7 489 583.3 489 600 496.7C616.7 504.3 633.3 519.7 650 523.5C666.7 527.3 683.3 519.7 700 513.2C716.7 506.7 733.3 501.3 750 502.7C766.7 504 783.3 512 800 510.3C816.7 508.7 833.3 497.3 850 499.3C866.7 501.3 883.3 516.7 891.7 524.3L900 532L900 601L891.7 601C883.3 601 866.7 601 850 601C833.3 601 816.7 601 800 601C783.3 601 766.7 601 750 601C733.3 601 716.7 601 700 601C683.3 601 666.7 601 650 601C633.3 601 616.7 601 600 601C583.3 601 566.7 601 550 601C533.3 601 516.7 601 500 601C483.3 601 466.7 601 450 601C433.3 601 416.7 601 400 601C383.3 601 366.7 601 350 601C333.3 601 316.7 601 300 601C283.3 601 266.7 601 250 601C233.3 601 216.7 601 200 601C183.3 601 166.7 601 150 601C133.3 601 116.7 601 100 601C83.3 601 66.7 601 50 601C33.3 601 16.7 601 8.3 601L0 601Z" fill="#df4667"></path><path d="M0 541L8.3 539.8C16.7 538.7 33.3 536.3 50 532.3C66.7 528.3 83.3 522.7 100 519.3C116.7 516 133.3 515 150 515C166.7 515 183.3 516 200 517.3C216.7 518.7 233.3 520.3 250 520.5C266.7 520.7 283.3 519.3 300 520C316.7 520.7 333.3 523.3 350 529.3C366.7 535.3 383.3 544.7 400 546C416.7 547.3 433.3 540.7 450 534.8C466.7 529 483.3 524 500 527.5C516.7 531 533.3 543 550 548.3C566.7 553.7 583.3 552.3 600 546.8C616.7 541.3 633.3 531.7 650 531.5C666.7 531.3 683.3 540.7 700 540.3C716.7 540 733.3 530 750 523.3C766.7 516.7 783.3 513.3 800 518.5C816.7 523.7 833.3 537.3 850 537.3C866.7 537.3 883.3 523.7 891.7 516.8L900 510L900 601L891.7 601C883.3 601 866.7 601 850 601C833.3 601 816.7 601 800 601C783.3 601 766.7 601 750 601C733.3 601 716.7 601 700 601C683.3 601 666.7 601 650 601C633.3 601 616.7 601 600 601C583.3 601 566.7 601 550 601C533.3 601 516.7 601 500 601C483.3 601 466.7 601 450 601C433.3 601 416.7 601 400 601C383.3 601 366.7 601 350 601C333.3 601 316.7 601 300 601C283.3 601 266.7 601 250 601C233.3 601 216.7 601 200 601C183.3 601 166.7 601 150 601C133.3 601 116.7 601 100 601C83.3 601 66.7 601 50 601C33.3 601 16.7 601 8.3 601L0 601Z" fill="#d73b67"></path><path d="M0 561L8.3 559.7C16.7 558.3 33.3 555.7 50 556.7C66.7 557.7 83.3 562.3 100 559.8C116.7 557.3 133.3 547.7 150 543.3C166.7 539 183.3 540 200 543.7C216.7 547.3 233.3 553.7 250 554.7C266.7 555.7 283.3 551.3 300 549.7C316.7 548 333.3 549 350 548.5C366.7 548 383.3 546 400 547.3C416.7 548.7 433.3 553.3 450 553.2C466.7 553 483.3 548 500 545C516.7 542 533.3 541 550 543.2C566.7 545.3 583.3 550.7 600 549.8C616.7 549 633.3 542 650 541.8C666.7 541.7 683.3 548.3 700 551.5C716.7 554.7 733.3 554.3 750 554.5C766.7 554.7 783.3 555.3 800 556.3C816.7 557.3 833.3 558.7 850 555.8C866.7 553 883.3 546 891.7 542.5L900 539L900 601L891.7 601C883.3 601 866.7 601 850 601C833.3 601 816.7 601 800 601C783.3 601 766.7 601 750 601C733.3 601 716.7 601 700 601C683.3 601 666.7 601 650 601C633.3 601 616.7 601 600 601C583.3 601 566.7 601 550 601C533.3 601 516.7 601 500 601C483.3 601 466.7 601 450 601C433.3 601 416.7 601 400 601C383.3 601 366.7 601 350 601C333.3 601 316.7 601 300 601C283.3 601 266.7 601 250 601C233.3 601 216.7 601 200 601C183.3 601 166.7 601 150 601C133.3 601 116.7 601 100 601C83.3 601 66.7 601 50 601C33.3 601 16.7 601 8.3 601L0 601Z" fill="#cf3068"></path><path d="M0 566L8.3 565.5C16.7 565 33.3 564 50 564.8C66.7 565.7 83.3 568.3 100 568.3C116.7 568.3 133.3 565.7 150 564.2C166.7 562.7 183.3 562.3 200 562.5C216.7 562.7 233.3 563.3 250 566.7C266.7 570 283.3 576 300 577C316.7 578 333.3 574 350 574.8C366.7 575.7 383.3 581.3 400 583.8C416.7 586.3 433.3 585.7 450 582.7C466.7 579.7 483.3 574.3 500 573.5C516.7 572.7 533.3 576.3 550 574.7C566.7 573 583.3 566 600 566.3C616.7 566.7 633.3 574.3 650 574.7C666.7 575 683.3 568 700 566.8C716.7 565.7 733.3 570.3 750 572C766.7 573.7 783.3 572.3 800 573C816.7 573.7 833.3 576.3 850 574C866.7 571.7 883.3 564.3 891.7 560.7L900 557L900 601L891.7 601C883.3 601 866.7 601 850 601C833.3 601 816.7 601 800 601C783.3 601 766.7 601 750 601C733.3 601 716.7 601 700 601C683.3 601 666.7 601 650 601C633.3 601 616.7 601 600 601C583.3 601 566.7 601 550 601C533.3 601 516.7 601 500 601C483.3 601 466.7 601 450 601C433.3 601 416.7 601 400 601C383.3 601 366.7 601 350 601C333.3 601 316.7 601 300 601C283.3 601 266.7 601 250 601C233.3 601 216.7 601 200 601C183.3 601 166.7 601 150 601C133.3 601 116.7 601 100 601C83.3 601 66.7 601 50 601C33.3 601 16.7 601 8.3 601L0 601Z" fill="#c62368"></path></svg>