<svg id="visual" viewBox="0 0 960 540" width="960" height="540" xmlns="http://www.w3.org/2000/svg" xmlns:xlink="http://www.w3.org/1999/xlink" version="1.1"><rect x="0" y="0" width="960" height="540" fill="#001220"></rect><path d="M0 320L9.3 326.3C18.7 332.7 37.3 345.3 56.2 348.5C75 351.7 94 345.3 112.8 349.5C131.7 353.7 150.3 368.3 169.2 374C188 379.7 207 376.3 225.8 371.3C244.7 366.3 263.3 359.7 282.2 351.7C301 343.7 320 334.3 338.8 331.8C357.7 329.3 376.3 333.7 395.2 341.3C414 349 433 360 451.8 361C470.7 362 489.3 353 508.2 351.3C527 349.7 546 355.3 564.8 361.3C583.7 367.3 602.3 373.7 621.2 371C640 368.3 659 356.7 677.8 354.3C696.7 352 715.3 359 734.2 363C753 367 772 368 790.8 368.8C809.7 369.7 828.3 370.3 847.2 370.5C866 370.7 885 370.3 903.8 373C922.7 375.7 941.3 381.3 950.7 384.2L960 387L960 541L950.7 541C941.3 541 922.7 541 903.8 541C885 541 866 541 847.2 541C828.3 541 809.7 541 790.8 541C772 541 753 541 734.2 541C715.3 541 696.7 541 677.8 541C659 541 640 541 621.2 541C602.3 541 583.7 541 564.8 541C546 541 527 541 508.2 541C489.3 541 470.7 541 451.8 541C433 541 414 541 395.2 541C376.3 541 357.7 541 338.8 541C320 541 301 541 282.2 541C263.3 541 244.7 541 225.8 541C207 541 188 541 169.2 541C150.3 541 131.7 541 112.8 541C94 541 75 541 56.2 541C37.3 541 18.7 541 9.3 541L0 541Z" fill="#fa7268"></path><path d="M0 390L9.3 385.3C18.7 380.7 37.3 371.3 56.2 368.8C75 366.3 94 370.7 112.8 378C131.7 385.3 150.3 395.7 169.2 399C188 402.3 207 398.7 225.8 391.8C244.7 385 263.3 375 282.2 376.8C301 378.7 320 392.3 338.8 390.3C357.7 388.3 376.3 370.7 395.2 361.3C414 352 433 351 451.8 357.5C470.7 364 489.3 378 508.2 380.5C527 383 546 374 564.8 368.2C583.7 362.3 602.3 359.7 621.2 365.8C640 372 659 387 677.8 386.5C696.7 386 715.3 370 734.2 370.5C753 371 772 388 790.8 388.8C809.7 389.7 828.3 374.3 847.2 366.3C866 358.3 885 357.7 903.8 363.3C922.7 369 941.3 381 950.7 387L960 393L960 541L950.7 541C941.3 541 922.7 541 903.8 541C885 541 866 541 847.2 541C828.3 541 809.7 541 790.8 541C772 541 753 541 734.2 541C715.3 541 696.7 541 677.8 541C659 541 640 541 621.2 541C602.3 541 583.7 541 564.8 541C546 541 527 541 508.2 541C489.3 541 470.7 541 451.8 541C433 541 414 541 395.2 541C376.3 541 357.7 541 338.8 541C320 541 301 541 282.2 541C263.3 541 244.7 541 225.8 541C207 541 188 541 169.2 541C150.3 541 131.7 541 112.8 541C94 541 75 541 56.2 541C37.3 541 18.7 541 9.3 541L0 541Z" fill="#f36567"></path><path d="M0 424L9.3 418.7C18.7 413.3 37.3 402.7 56.2 400.3C75 398 94 404 112.8 410.2C131.7 416.3 150.3 422.7 169.2 418.2C188 413.7 207 398.3 225.8 391.8C244.7 385.3 263.3 387.7 282.2 387.7C301 387.7 320 385.3 338.8 387.5C357.7 389.7 376.3 396.3 395.2 397.8C414 399.3 433 395.7 451.8 397C470.7 398.3 489.3 404.7 508.2 403.8C527 403 546 395 564.8 395C583.7 395 602.3 403 621.2 408.8C640 414.7 659 418.3 677.8 414C696.7 409.7 715.3 397.3 734.2 397.2C753 397 772 409 790.8 413.3C809.7 417.7 828.3 414.3 847.2 414.3C866 414.3 885 417.7 903.8 414.3C922.7 411 941.3 401 950.7 396L960 391L960 541L950.7 541C941.3 541 922.7 541 903.8 541C885 541 866 541 847.2 541C828.3 541 809.7 541 790.8 541C772 541 753 541 734.2 541C715.3 541 696.7 541 677.8 541C659 541 640 541 621.2 541C602.3 541 583.7 541 564.8 541C546 541 527 541 508.2 541C489.3 541 470.7 541 451.8 541C433 541 414 541 395.2 541C376.3 541 357.7 541 338.8 541C320 541 301 541 282.2 541C263.3 541 244.7 541 225.8 541C207 541 188 541 169.2 541C150.3 541 131.7 541 112.8 541C94 541 75 541 56.2 541C37.3 541 18.7 541 9.3 541L0 541Z" fill="#eb5967"></path><path d="M0 434L9.3 436.5C18.7 439 37.3 444 56.2 446.2C75 448.3 94 447.7 112.8 446.7C131.7 445.7 150.3 444.3 169.2 441.8C188 439.3 207 435.7 225.8 434.7C244.7 433.7 263.3 435.3 282.2 436.3C301 437.3 320 437.7 338.8 436.2C357.7 434.7 376.3 431.3 395.2 429.2C414 427 433 426 451.8 422.3C470.7 418.7 489.3 412.3 508.2 414.5C527 416.7 546 427.3 564.8 433.3C583.7 439.3 602.3 440.7 621.2 442.8C640 445 659 448 677.8 445.7C696.7 443.3 715.3 435.7 734.2 434.3C753 433 772 438 790.8 437.7C809.7 437.3 828.3 431.7 847.2 430.5C866 429.3 885 432.7 903.8 430.2C922.7 427.7 941.3 419.3 950.7 415.2L960 411L960 541L950.7 541C941.3 541 922.7 541 903.8 541C885 541 866 541 847.2 541C828.3 541 809.7 541 790.8 541C772 541 753 541 734.2 541C715.3 541 696.7 541 677.8 541C659 541 640 541 621.2 541C602.3 541 583.7 541 564.8 541C546 541 527 541 508.2 541C489.3 541 470.7 541 451.8 541C433 541 414 541 395.2 541C376.3 541 357.7 541 338.8 541C320 541 301 541 282.2 541C263.3 541 244.7 541 225.8 541C207 541 188 541 169.2 541C150.3 541 131.7 541 112.8 541C94 541 75 541 56.2 541C37.3 541 18.7 541 9.3 541L0 541Z" fill="#e34c67"></path><path d="M0 440L9.3 445.7C18.7 451.3 37.3 462.7 56.2 467C75 471.3 94 468.7 112.8 466.2C131.7 463.7 150.3 461.3 169.2 461.8C188 462.3 207 465.7 225.8 468.3C244.7 471 263.3 473 282.2 472.8C301 472.7 320 470.3 338.8 469C357.7 467.7 376.3 467.3 395.2 467.5C414 467.7 433 468.3 451.8 467.3C470.7 466.3 489.3 463.7 508.2 462.7C527 461.7 546 462.3 564.8 460.7C583.7 459 602.3 455 621.2 454.2C640 453.3 659 455.7 677.8 458C696.7 460.3 715.3 462.7 734.2 460.2C753 457.7 772 450.3 790.8 451.2C809.7 452 828.3 461 847.2 460.5C866 460 885 450 903.8 445.2C922.7 440.3 941.3 440.7 950.7 440.8L960 441L960 541L950.7 541C941.3 541 922.7 541 903.8 541C885 541 866 541 847.2 541C828.3 541 809.7 541 790.8 541C772 541 753 541 734.2 541C715.3 541 696.7 541 677.8 541C659 541 640 541 621.2 541C602.3 541 583.7 541 564.8 541C546 541 527 541 508.2 541C489.3 541 470.7 541 451.8 541C433 541 414 541 395.2 541C376.3 541 357.7 541 338.8 541C320 541 301 541 282.2 541C263.3 541 244.7 541 225.8 541C207 541 188 541 169.2 541C150.3 541 131.7 541 112.8 541C94 541 75 541 56.2 541C37.3 541 18.7 541 9.3 541L0 541Z" fill="#da3f67"></path><path d="M0 474L9.3 475.8C18.7 477.7 37.3 481.3 56.2 482.2C75 483 94 481 112.8 480.2C131.7 479.3 150.3 479.7 169.2 480.2C188 480.7 207 481.3 225.8 479.3C244.7 477.3 263.3 472.7 282.2 474.5C301 476.3 320 484.7 338.8 489.2C357.7 493.7 376.3 494.3 395.2 494.2C414 494 433 493 451.8 493.2C470.7 493.3 489.3 494.7 508.2 494.5C527 494.3 546 492.7 564.8 489.5C583.7 486.3 602.3 481.7 621.2 477.3C640 473 659 469 677.8 472C696.7 475 715.3 485 734.2 487.5C753 490 772 485 790.8 480C809.7 475 828.3 470 847.2 469.3C866 468.7 885 472.3 903.8 475.3C922.7 478.3 941.3 480.7 950.7 481.8L960 483L960 541L950.7 541C941.3 541 922.7 541 903.8 541C885 541 866 541 847.2 541C828.3 541 809.7 541 790.8 541C772 541 753 541 734.2 541C715.3 541 696.7 541 677.8 541C659 541 640 541 621.2 541C602.3 541 583.7 541 564.8 541C546 541 527 541 508.2 541C489.3 541 470.7 541 451.8 541C433 541 414 541 395.2 541C376.3 541 357.7 541 338.8 541C320 541 301 541 282.2 541C263.3 541 244.7 541 225.8 541C207 541 188 541 169.2 541C150.3 541 131.7 541 112.8 541C94 541 75 541 56.2 541C37.3 541 18.7 541 9.3 541L0 541Z" fill="#d03267"></path><path d="M0 502L9.3 502.7C18.7 503.3 37.3 504.7 56.2 504.3C75 504 94 502 112.8 502.7C131.7 503.3 150.3 506.7 169.2 509.7C188 512.7 207 515.3 225.8 515.8C244.7 516.3 263.3 514.7 282.2 511.5C301 508.3 320 503.7 338.8 504.2C357.7 504.7 376.3 510.3 395.2 511.2C414 512 433 508 451.8 505.3C470.7 502.7 489.3 501.3 508.2 500.8C527 500.3 546 500.7 564.8 499.3C583.7 498 602.3 495 621.2 494.7C640 494.3 659 496.7 677.8 498.7C696.7 500.7 715.3 502.3 734.2 505.3C753 508.3 772 512.7 790.8 511.8C809.7 511 828.3 505 847.2 505.2C866 505.3 885 511.7 903.8 510.5C922.7 509.3 941.3 500.7 950.7 496.3L960 492L960 541L950.7 541C941.3 541 922.7 541 903.8 541C885 541 866 541 847.2 541C828.3 541 809.7 541 790.8 541C772 541 753 541 734.2 541C715.3 541 696.7 541 677.8 541C659 541 640 541 621.2 541C602.3 541 583.7 541 564.8 541C546 541 527 541 508.2 541C489.3 541 470.7 541 451.8 541C433 541 414 541 395.2 541C376.3 541 357.7 541 338.8 541C320 541 301 541 282.2 541C263.3 541 244.7 541 225.8 541C207 541 188 541 169.2 541C150.3 541 131.7 541 112.8 541C94 541 75 541 56.2 541C37.3 541 18.7 541 9.3 541L0 541Z" fill="#c62368"></path></svg>