<svg id="visual" viewBox="0 0 900 600" width="900" height="600" xmlns="http://www.w3.org/2000/svg" xmlns:xlink="http://www.w3.org/1999/xlink" version="1.1"><path d="M0 271L13.7 261C27.3 251 54.7 231 82 229C109.3 227 136.7 243 163.8 233C191 223 218 187 245.2 178C272.3 169 299.7 187 327 177C354.3 167 381.7 129 409 138C436.3 147 463.7 203 491 223C518.3 243 545.7 227 573 213C600.3 199 627.7 187 654.8 170C682 153 709 131 736.2 145C763.3 159 790.7 209 818 212C845.3 215 872.7 171 886.3 149L900 127L900 0L886.3 0C872.7 0 845.3 0 818 0C790.7 0 763.3 0 736.2 0C709 0 682 0 654.8 0C627.7 0 600.3 0 573 0C545.7 0 518.3 0 491 0C463.7 0 436.3 0 409 0C381.7 0 354.3 0 327 0C299.7 0 272.3 0 245.2 0C218 0 191 0 163.8 0C136.7 0 109.3 0 82 0C54.7 0 27.3 0 13.7 0L0 0Z" fill="#da6a94"></path><path d="M0 313L13.7 307C27.3 301 54.7 289 82 293C109.3 297 136.7 317 163.8 309C191 301 218 265 245.2 251C272.3 237 299.7 245 327 229C354.3 213 381.7 173 409 185C436.3 197 463.7 261 491 293C518.3 325 545.7 325 573 313C600.3 301 627.7 277 654.8 255C682 233 709 213 736.2 224C763.3 235 790.7 277 818 284C845.3 291 872.7 263 886.3 249L900 235L900 125L886.3 147C872.7 169 845.3 213 818 210C790.7 207 763.3 157 736.2 143C709 129 682 151 654.8 168C627.7 185 600.3 197 573 211C545.7 225 518.3 241 491 221C463.7 201 436.3 145 409 136C381.7 127 354.3 165 327 175C299.7 185 272.3 167 245.2 176C218 185 191 221 163.8 231C136.7 241 109.3 225 82 227C54.7 229 27.3 249 13.7 259L0 269Z" fill="#d14b7e"></path><path d="M0 391L13.7 379C27.3 367 54.7 343 82 344C109.3 345 136.7 371 163.8 366C191 361 218 325 245.2 309C272.3 293 299.7 297 327 286C354.3 275 381.7 249 409 266C436.3 283 463.7 343 491 377C518.3 411 545.7 419 573 411C600.3 403 627.7 379 654.8 353C682 327 709 299 736.2 310C763.3 321 790.7 371 818 377C845.3 383 872.7 345 886.3 326L900 307L900 233L886.3 247C872.7 261 845.3 289 818 282C790.7 275 763.3 233 736.2 222C709 211 682 231 654.8 253C627.7 275 600.3 299 573 311C545.7 323 518.3 323 491 291C463.7 259 436.3 195 409 183C381.7 171 354.3 211 327 227C299.7 243 272.3 235 245.2 249C218 263 191 299 163.8 307C136.7 315 109.3 295 82 291C54.7 287 27.3 299 13.7 305L0 311Z" fill="#c62368"></path><path d="M0 481L13.7 470C27.3 459 54.7 437 82 432C109.3 427 136.7 439 163.8 443C191 447 218 443 245.2 446C272.3 449 299.7 459 327 446C354.3 433 381.7 397 409 399C436.3 401 463.7 441 491 461C518.3 481 545.7 481 573 478C600.3 475 627.7 469 654.8 445C682 421 709 379 736.2 386C763.3 393 790.7 449 818 458C845.3 467 872.7 429 886.3 410L900 391L900 305L886.3 324C872.7 343 845.3 381 818 375C790.7 369 763.3 319 736.2 308C709 297 682 325 654.8 351C627.7 377 600.3 401 573 409C545.7 417 518.3 409 491 375C463.7 341 436.3 281 409 264C381.7 247 354.3 273 327 284C299.7 295 272.3 291 245.2 307C218 323 191 359 163.8 364C136.7 369 109.3 343 82 342C54.7 341 27.3 365 13.7 377L0 389Z" fill="#ab1f5a"></path><path d="M0 601L13.7 601C27.3 601 54.7 601 82 601C109.3 601 136.7 601 163.8 601C191 601 218 601 245.2 601C272.3 601 299.7 601 327 601C354.3 601 381.7 601 409 601C436.3 601 463.7 601 491 601C518.3 601 545.7 601 573 601C600.3 601 627.7 601 654.8 601C682 601 709 601 736.2 601C763.3 601 790.7 601 818 601C845.3 601 872.7 601 886.3 601L900 601L900 389L886.3 408C872.7 427 845.3 465 818 456C790.7 447 763.3 391 736.2 384C709 377 682 419 654.8 443C627.7 467 600.3 473 573 476C545.7 479 518.3 479 491 459C463.7 439 436.3 399 409 397C381.7 395 354.3 431 327 444C299.7 457 272.3 447 245.2 444C218 441 191 445 163.8 441C136.7 437 109.3 425 82 430C54.7 435 27.3 457 13.7 468L0 479Z" fill="#911b4d"></path></svg>