<svg id="visual" viewBox="0 0 900 600" width="900" height="600" xmlns="http://www.w3.org/2000/svg" xmlns:xlink="http://www.w3.org/1999/xlink" version="1.1"><path d="M0 121L8.3 119C16.7 117 33.3 113 50 112C66.7 111 83.3 113 100 117C116.7 121 133.3 127 150 129C166.7 131 183.3 129 200 129C216.7 129 233.3 131 250 130C266.7 129 283.3 125 300 120C316.7 115 333.3 109 350 109C366.7 109 383.3 115 400 114C416.7 113 433.3 105 450 103C466.7 101 483.3 105 500 111C516.7 117 533.3 125 550 129C566.7 133 583.3 133 600 134C616.7 135 633.3 137 650 135C666.7 133 683.3 127 700 126C716.7 125 733.3 129 750 125C766.7 121 783.3 109 800 105C816.7 101 833.3 105 850 108C866.7 111 883.3 113 891.7 114L900 115L900 0L891.7 0C883.3 0 866.7 0 850 0C833.3 0 816.7 0 800 0C783.3 0 766.7 0 750 0C733.3 0 716.7 0 700 0C683.3 0 666.7 0 650 0C633.3 0 616.7 0 600 0C583.3 0 566.7 0 550 0C533.3 0 516.7 0 500 0C483.3 0 466.7 0 450 0C433.3 0 416.7 0 400 0C383.3 0 366.7 0 350 0C333.3 0 316.7 0 300 0C283.3 0 266.7 0 250 0C233.3 0 216.7 0 200 0C183.3 0 166.7 0 150 0C133.3 0 116.7 0 100 0C83.3 0 66.7 0 50 0C33.3 0 16.7 0 8.3 0L0 0Z" fill="#ffffff"></path><path d="M0 223L8.3 218C16.7 213 33.3 203 50 201C66.7 199 83.3 205 100 213C116.7 221 133.3 231 150 234C166.7 237 183.3 233 200 230C216.7 227 233.3 225 250 220C266.7 215 283.3 207 300 204C316.7 201 333.3 203 350 208C366.7 213 383.3 221 400 219C416.7 217 433.3 205 450 199C466.7 193 483.3 193 500 202C516.7 211 533.3 229 550 233C566.7 237 583.3 227 600 222C616.7 217 633.3 217 650 220C666.7 223 683.3 229 700 230C716.7 231 733.3 227 750 222C766.7 217 783.3 211 800 211C816.7 211 833.3 217 850 219C866.7 221 883.3 219 891.7 218L900 217L900 113L891.7 112C883.3 111 866.7 109 850 106C833.3 103 816.7 99 800 103C783.3 107 766.7 119 750 123C733.3 127 716.7 123 700 124C683.3 125 666.7 131 650 133C633.3 135 616.7 133 600 132C583.3 131 566.7 131 550 127C533.3 123 516.7 115 500 109C483.3 103 466.7 99 450 101C433.3 103 416.7 111 400 112C383.3 113 366.7 107 350 107C333.3 107 316.7 113 300 118C283.3 123 266.7 127 250 128C233.3 129 216.7 127 200 127C183.3 127 166.7 129 150 127C133.3 125 116.7 119 100 115C83.3 111 66.7 109 50 110C33.3 111 16.7 115 8.3 117L0 119Z" fill="#a2a7ad"></path><path d="M0 421L8.3 420C16.7 419 33.3 417 50 412C66.7 407 83.3 399 100 397C116.7 395 133.3 399 150 401C166.7 403 183.3 403 200 402C216.7 401 233.3 399 250 399C266.7 399 283.3 401 300 403C316.7 405 333.3 407 350 402C366.7 397 383.3 385 400 378C416.7 371 433.3 369 450 368C466.7 367 483.3 367 500 372C516.7 377 533.3 387 550 395C566.7 403 583.3 409 600 413C616.7 417 633.3 419 650 414C666.7 409 683.3 397 700 396C716.7 395 733.3 405 750 411C766.7 417 783.3 419 800 422C816.7 425 833.3 429 850 427C866.7 425 883.3 417 891.7 413L900 409L900 215L891.7 216C883.3 217 866.7 219 850 217C833.3 215 816.7 209 800 209C783.3 209 766.7 215 750 220C733.3 225 716.7 229 700 228C683.3 227 666.7 221 650 218C633.3 215 616.7 215 600 220C583.3 225 566.7 235 550 231C533.3 227 516.7 209 500 200C483.3 191 466.7 191 450 197C433.3 203 416.7 215 400 217C383.3 219 366.7 211 350 206C333.3 201 316.7 199 300 202C283.3 205 266.7 213 250 218C233.3 223 216.7 225 200 228C183.3 231 166.7 235 150 232C133.3 229 116.7 219 100 211C83.3 203 66.7 197 50 199C33.3 201 16.7 211 8.3 216L0 221Z" fill="#4e5762"></path><path d="M0 601L8.3 601C16.7 601 33.3 601 50 601C66.7 601 83.3 601 100 601C116.7 601 133.3 601 150 601C166.7 601 183.3 601 200 601C216.7 601 233.3 601 250 601C266.7 601 283.3 601 300 601C316.7 601 333.3 601 350 601C366.7 601 383.3 601 400 601C416.7 601 433.3 601 450 601C466.7 601 483.3 601 500 601C516.7 601 533.3 601 550 601C566.7 601 583.3 601 600 601C616.7 601 633.3 601 650 601C666.7 601 683.3 601 700 601C716.7 601 733.3 601 750 601C766.7 601 783.3 601 800 601C816.7 601 833.3 601 850 601C866.7 601 883.3 601 891.7 601L900 601L900 407L891.7 411C883.3 415 866.7 423 850 425C833.3 427 816.7 423 800 420C783.3 417 766.7 415 750 409C733.3 403 716.7 393 700 394C683.3 395 666.7 407 650 412C633.3 417 616.7 415 600 411C583.3 407 566.7 401 550 393C533.3 385 516.7 375 500 370C483.3 365 466.7 365 450 366C433.3 367 416.7 369 400 376C383.3 383 366.7 395 350 400C333.3 405 316.7 403 300 401C283.3 399 266.7 397 250 397C233.3 397 216.7 399 200 400C183.3 401 166.7 401 150 399C133.3 397 116.7 393 100 395C83.3 397 66.7 405 50 410C33.3 415 16.7 417 8.3 418L0 419Z" fill="#001220"></path></svg>