<svg id="visual" viewBox="0 0 900 600" width="900" height="600" xmlns="http://www.w3.org/2000/svg" xmlns:xlink="http://www.w3.org/1999/xlink" version="1.1"><rect x="0" y="0" width="900" height="600" fill="#FFFFFF"></rect><path d="M0 128L9.3 125.2C18.7 122.3 37.3 116.7 56.2 115.5C75 114.3 94 117.7 112.8 119.8C131.7 122 150.3 123 169 123C187.7 123 206.3 122 225 120.7C243.7 119.3 262.3 117.7 281.2 118.7C300 119.7 319 123.3 337.8 122.2C356.7 121 375.3 115 394 111.8C412.7 108.7 431.3 108.3 450 108.2C468.7 108 487.3 108 506.2 111.5C525 115 544 122 562.8 123.8C581.7 125.7 600.3 122.3 619 120C637.7 117.7 656.3 116.3 675 118C693.7 119.7 712.3 124.3 731.2 126.8C750 129.3 769 129.7 787.8 127C806.7 124.3 825.3 118.7 844 115.2C862.7 111.7 881.3 110.3 890.7 109.7L900 109L900 0L890.7 0C881.3 0 862.7 0 844 0C825.3 0 806.7 0 787.8 0C769 0 750 0 731.2 0C712.3 0 693.7 0 675 0C656.3 0 637.7 0 619 0C600.3 0 581.7 0 562.8 0C544 0 525 0 506.2 0C487.3 0 468.7 0 450 0C431.3 0 412.7 0 394 0C375.3 0 356.7 0 337.8 0C319 0 300 0 281.2 0C262.3 0 243.7 0 225 0C206.3 0 187.7 0 169 0C150.3 0 131.7 0 112.8 0C94 0 75 0 56.2 0C37.3 0 18.7 0 9.3 0L0 0Z" fill="#FCAF3C" stroke-linecap="round" stroke-linejoin="miter"></path></svg>