<svg id="visual" viewBox="0 0 900 600" width="900" height="600" xmlns="http://www.w3.org/2000/svg" xmlns:xlink="http://www.w3.org/1999/xlink" version="1.1"><rect x="0" y="0" width="900" height="600" fill="#ffffff"></rect><path d="M0 204L8.3 202.5C16.7 201 33.3 198 50 185.2C66.7 172.3 83.3 149.7 100 143C116.7 136.3 133.3 145.7 150 155.2C166.7 164.7 183.3 174.3 200 177.2C216.7 180 233.3 176 250 172.8C266.7 169.7 283.3 167.3 300 163.3C316.7 159.3 333.3 153.7 350 155.8C366.7 158 383.3 168 400 166C416.7 164 433.3 150 450 155C466.7 160 483.3 184 500 184.8C516.7 185.7 533.3 163.3 550 155.5C566.7 147.7 583.3 154.3 600 159.3C616.7 164.3 633.3 167.7 650 162.5C666.7 157.3 683.3 143.7 700 146.8C716.7 150 733.3 170 750 170.7C766.7 171.3 783.3 152.7 800 151C816.7 149.3 833.3 164.7 850 163.3C866.7 162 883.3 144 891.7 135L900 126L900 0L891.7 0C883.3 0 866.7 0 850 0C833.3 0 816.7 0 800 0C783.3 0 766.7 0 750 0C733.3 0 716.7 0 700 0C683.3 0 666.7 0 650 0C633.3 0 616.7 0 600 0C583.3 0 566.7 0 550 0C533.3 0 516.7 0 500 0C483.3 0 466.7 0 450 0C433.3 0 416.7 0 400 0C383.3 0 366.7 0 350 0C333.3 0 316.7 0 300 0C283.3 0 266.7 0 250 0C233.3 0 216.7 0 200 0C183.3 0 166.7 0 150 0C133.3 0 116.7 0 100 0C83.3 0 66.7 0 50 0C33.3 0 16.7 0 8.3 0L0 0Z" fill="#fa7268"></path><path d="M0 169L8.3 169.7C16.7 170.3 33.3 171.7 50 169.3C66.7 167 83.3 161 100 157.2C116.7 153.3 133.3 151.7 150 145.8C166.7 140 183.3 130 200 135.3C216.7 140.7 233.3 161.3 250 169C266.7 176.7 283.3 171.3 300 167.8C316.7 164.3 333.3 162.7 350 162.8C366.7 163 383.3 165 400 162.5C416.7 160 433.3 153 450 145.7C466.7 138.3 483.3 130.7 500 131.2C516.7 131.7 533.3 140.3 550 150.5C566.7 160.7 583.3 172.3 600 168.2C616.7 164 633.3 144 650 138.2C666.7 132.3 683.3 140.7 700 138.3C716.7 136 733.3 123 750 126.5C766.7 130 783.3 150 800 158.5C816.7 167 833.3 164 850 163.3C866.7 162.7 883.3 164.3 891.7 165.2L900 166L900 0L891.7 0C883.3 0 866.7 0 850 0C833.3 0 816.7 0 800 0C783.3 0 766.7 0 750 0C733.3 0 716.7 0 700 0C683.3 0 666.7 0 650 0C633.3 0 616.7 0 600 0C583.3 0 566.7 0 550 0C533.3 0 516.7 0 500 0C483.3 0 466.7 0 450 0C433.3 0 416.7 0 400 0C383.3 0 366.7 0 350 0C333.3 0 316.7 0 300 0C283.3 0 266.7 0 250 0C233.3 0 216.7 0 200 0C183.3 0 166.7 0 150 0C133.3 0 116.7 0 100 0C83.3 0 66.7 0 50 0C33.3 0 16.7 0 8.3 0L0 0Z" fill="#f46767"></path><path d="M0 105L8.3 113.8C16.7 122.7 33.3 140.3 50 145.5C66.7 150.7 83.3 143.3 100 137.3C116.7 131.3 133.3 126.7 150 130.3C166.7 134 183.3 146 200 141C216.7 136 233.3 114 250 114C266.7 114 283.3 136 300 143.8C316.7 151.7 333.3 145.3 350 137C366.7 128.7 383.3 118.3 400 120.2C416.7 122 433.3 136 450 140.3C466.7 144.7 483.3 139.3 500 137.2C516.7 135 533.3 136 550 130.2C566.7 124.3 583.3 111.7 600 107.7C616.7 103.7 633.3 108.3 650 107.2C666.7 106 683.3 99 700 103.7C716.7 108.3 733.3 124.7 750 125.8C766.7 127 783.3 113 800 107.8C816.7 102.7 833.3 106.3 850 116.2C866.7 126 883.3 142 891.7 150L900 158L900 0L891.7 0C883.3 0 866.7 0 850 0C833.3 0 816.7 0 800 0C783.3 0 766.7 0 750 0C733.3 0 716.7 0 700 0C683.3 0 666.7 0 650 0C633.3 0 616.7 0 600 0C583.3 0 566.7 0 550 0C533.3 0 516.7 0 500 0C483.3 0 466.7 0 450 0C433.3 0 416.7 0 400 0C383.3 0 366.7 0 350 0C333.3 0 316.7 0 300 0C283.3 0 266.7 0 250 0C233.3 0 216.7 0 200 0C183.3 0 166.7 0 150 0C133.3 0 116.7 0 100 0C83.3 0 66.7 0 50 0C33.3 0 16.7 0 8.3 0L0 0Z" fill="#ee5c67"></path><path d="M0 131L8.3 130.8C16.7 130.7 33.3 130.3 50 128.7C66.7 127 83.3 124 100 122.5C116.7 121 133.3 121 150 115.2C166.7 109.3 183.3 97.7 200 95.7C216.7 93.7 233.3 101.3 250 99.3C266.7 97.3 283.3 85.7 300 84.3C316.7 83 333.3 92 350 100.3C366.7 108.7 383.3 116.3 400 119C416.7 121.7 433.3 119.3 450 115.5C466.7 111.7 483.3 106.3 500 109.2C516.7 112 533.3 123 550 126C566.7 129 583.3 124 600 124.3C616.7 124.7 633.3 130.3 650 128.7C666.7 127 683.3 118 700 108.3C716.7 98.7 733.3 88.3 750 85.7C766.7 83 783.3 88 800 92.7C816.7 97.3 833.3 101.7 850 102.3C866.7 103 883.3 100 891.7 98.5L900 97L900 0L891.7 0C883.3 0 866.7 0 850 0C833.3 0 816.7 0 800 0C783.3 0 766.7 0 750 0C733.3 0 716.7 0 700 0C683.3 0 666.7 0 650 0C633.3 0 616.7 0 600 0C583.3 0 566.7 0 550 0C533.3 0 516.7 0 500 0C483.3 0 466.7 0 450 0C433.3 0 416.7 0 400 0C383.3 0 366.7 0 350 0C333.3 0 316.7 0 300 0C283.3 0 266.7 0 250 0C233.3 0 216.7 0 200 0C183.3 0 166.7 0 150 0C133.3 0 116.7 0 100 0C83.3 0 66.7 0 50 0C33.3 0 16.7 0 8.3 0L0 0Z" fill="#e75167"></path><path d="M0 59L8.3 63.7C16.7 68.3 33.3 77.7 50 78.8C66.7 80 83.3 73 100 73C116.7 73 133.3 80 150 86.3C166.7 92.7 183.3 98.3 200 96.8C216.7 95.3 233.3 86.7 250 79.7C266.7 72.7 283.3 67.3 300 73.2C316.7 79 333.3 96 350 101C366.7 106 383.3 99 400 98.2C416.7 97.3 433.3 102.7 450 98C466.7 93.3 483.3 78.7 500 78.8C516.7 79 533.3 94 550 101.5C566.7 109 583.3 109 600 101.3C616.7 93.7 633.3 78.3 650 74.5C666.7 70.7 683.3 78.3 700 84.8C716.7 91.3 733.3 96.7 750 95.3C766.7 94 783.3 86 800 87.7C816.7 89.3 833.3 100.7 850 98.7C866.7 96.7 883.3 81.3 891.7 73.7L900 66L900 0L891.7 0C883.3 0 866.7 0 850 0C833.3 0 816.7 0 800 0C783.3 0 766.7 0 750 0C733.3 0 716.7 0 700 0C683.3 0 666.7 0 650 0C633.3 0 616.7 0 600 0C583.3 0 566.7 0 550 0C533.3 0 516.7 0 500 0C483.3 0 466.7 0 450 0C433.3 0 416.7 0 400 0C383.3 0 366.7 0 350 0C333.3 0 316.7 0 300 0C283.3 0 266.7 0 250 0C233.3 0 216.7 0 200 0C183.3 0 166.7 0 150 0C133.3 0 116.7 0 100 0C83.3 0 66.7 0 50 0C33.3 0 16.7 0 8.3 0L0 0Z" fill="#df4667"></path><path d="M0 57L8.3 58.2C16.7 59.3 33.3 61.7 50 65.7C66.7 69.7 83.3 75.3 100 78.7C116.7 82 133.3 83 150 83C166.7 83 183.3 82 200 80.7C216.7 79.3 233.3 77.7 250 77.5C266.7 77.3 283.3 78.7 300 78C316.7 77.3 333.3 74.7 350 68.7C366.7 62.7 383.3 53.3 400 52C416.7 50.7 433.3 57.3 450 63.2C466.7 69 483.3 74 500 70.5C516.7 67 533.3 55 550 49.7C566.7 44.3 583.3 45.7 600 51.2C616.7 56.7 633.3 66.3 650 66.5C666.7 66.7 683.3 57.3 700 57.7C716.7 58 733.3 68 750 74.7C766.7 81.3 783.3 84.7 800 79.5C816.7 74.3 833.3 60.7 850 60.7C866.7 60.7 883.3 74.3 891.7 81.2L900 88L900 0L891.7 0C883.3 0 866.7 0 850 0C833.3 0 816.7 0 800 0C783.3 0 766.7 0 750 0C733.3 0 716.7 0 700 0C683.3 0 666.7 0 650 0C633.3 0 616.7 0 600 0C583.3 0 566.7 0 550 0C533.3 0 516.7 0 500 0C483.3 0 466.7 0 450 0C433.3 0 416.7 0 400 0C383.3 0 366.7 0 350 0C333.3 0 316.7 0 300 0C283.3 0 266.7 0 250 0C233.3 0 216.7 0 200 0C183.3 0 166.7 0 150 0C133.3 0 116.7 0 100 0C83.3 0 66.7 0 50 0C33.3 0 16.7 0 8.3 0L0 0Z" fill="#d73b67"></path><path d="M0 37L8.3 38.3C16.7 39.7 33.3 42.3 50 41.3C66.7 40.3 83.3 35.7 100 38.2C116.7 40.7 133.3 50.3 150 54.7C166.7 59 183.3 58 200 54.3C216.7 50.7 233.3 44.3 250 43.3C266.7 42.3 283.3 46.7 300 48.3C316.7 50 333.3 49 350 49.5C366.7 50 383.3 52 400 50.7C416.7 49.3 433.3 44.7 450 44.8C466.7 45 483.3 50 500 53C516.7 56 533.3 57 550 54.8C566.7 52.7 583.3 47.3 600 48.2C616.7 49 633.3 56 650 56.2C666.7 56.3 683.3 49.7 700 46.5C716.7 43.3 733.3 43.7 750 43.5C766.7 43.3 783.3 42.7 800 41.7C816.7 40.7 833.3 39.3 850 42.2C866.7 45 883.3 52 891.7 55.5L900 59L900 0L891.7 0C883.3 0 866.7 0 850 0C833.3 0 816.7 0 800 0C783.3 0 766.7 0 750 0C733.3 0 716.7 0 700 0C683.3 0 666.7 0 650 0C633.3 0 616.7 0 600 0C583.3 0 566.7 0 550 0C533.3 0 516.7 0 500 0C483.3 0 466.7 0 450 0C433.3 0 416.7 0 400 0C383.3 0 366.7 0 350 0C333.3 0 316.7 0 300 0C283.3 0 266.7 0 250 0C233.3 0 216.7 0 200 0C183.3 0 166.7 0 150 0C133.3 0 116.7 0 100 0C83.3 0 66.7 0 50 0C33.3 0 16.7 0 8.3 0L0 0Z" fill="#cf3068"></path><path d="M0 32L8.3 32.5C16.7 33 33.3 34 50 33.2C66.7 32.3 83.3 29.7 100 29.7C116.7 29.7 133.3 32.3 150 33.8C166.7 35.3 183.3 35.7 200 35.5C216.7 35.3 233.3 34.7 250 31.3C266.7 28 283.3 22 300 21C316.7 20 333.3 24 350 23.2C366.7 22.3 383.3 16.7 400 14.2C416.7 11.7 433.3 12.3 450 15.3C466.7 18.3 483.3 23.7 500 24.5C516.7 25.3 533.3 21.7 550 23.3C566.7 25 583.3 32 600 31.7C616.7 31.3 633.3 23.7 650 23.3C666.7 23 683.3 30 700 31.2C716.7 32.3 733.3 27.7 750 26C766.7 24.3 783.3 25.7 800 25C816.7 24.3 833.3 21.7 850 24C866.7 26.3 883.3 33.7 891.7 37.3L900 41L900 0L891.7 0C883.3 0 866.7 0 850 0C833.3 0 816.7 0 800 0C783.3 0 766.7 0 750 0C733.3 0 716.7 0 700 0C683.3 0 666.7 0 650 0C633.3 0 616.7 0 600 0C583.3 0 566.7 0 550 0C533.3 0 516.7 0 500 0C483.3 0 466.7 0 450 0C433.3 0 416.7 0 400 0C383.3 0 366.7 0 350 0C333.3 0 316.7 0 300 0C283.3 0 266.7 0 250 0C233.3 0 216.7 0 200 0C183.3 0 166.7 0 150 0C133.3 0 116.7 0 100 0C83.3 0 66.7 0 50 0C33.3 0 16.7 0 8.3 0L0 0Z" fill="#c62368"></path></svg>