<svg id="visual" viewBox="0 0 900 600" width="900" height="600" xmlns="http://www.w3.org/2000/svg" xmlns:xlink="http://www.w3.org/1999/xlink" version="1.1"><path d="M0 181L13.7 177C27.3 173 54.7 165 82 162C109.3 159 136.7 161 163.8 172C191 183 218 203 245.2 203C272.3 203 299.7 183 327 173C354.3 163 381.7 163 409 172C436.3 181 463.7 199 491 190C518.3 181 545.7 145 573 123C600.3 101 627.7 93 654.8 101C682 109 709 133 736.2 139C763.3 145 790.7 133 818 127C845.3 121 872.7 121 886.3 121L900 121L900 0L886.3 0C872.7 0 845.3 0 818 0C790.7 0 763.3 0 736.2 0C709 0 682 0 654.8 0C627.7 0 600.3 0 573 0C545.7 0 518.3 0 491 0C463.7 0 436.3 0 409 0C381.7 0 354.3 0 327 0C299.7 0 272.3 0 245.2 0C218 0 191 0 163.8 0C136.7 0 109.3 0 82 0C54.7 0 27.3 0 13.7 0L0 0Z" fill="#ffffff"></path><path d="M0 403L13.7 397C27.3 391 54.7 379 82 371C109.3 363 136.7 359 163.8 359C191 359 218 363 245.2 367C272.3 371 299.7 375 327 380C354.3 385 381.7 391 409 380C436.3 369 463.7 341 491 339C518.3 337 545.7 361 573 358C600.3 355 627.7 325 654.8 311C682 297 709 299 736.2 305C763.3 311 790.7 321 818 321C845.3 321 872.7 311 886.3 306L900 301L900 119L886.3 119C872.7 119 845.3 119 818 125C790.7 131 763.3 143 736.2 137C709 131 682 107 654.8 99C627.7 91 600.3 99 573 121C545.7 143 518.3 179 491 188C463.7 197 436.3 179 409 170C381.7 161 354.3 161 327 171C299.7 181 272.3 201 245.2 201C218 201 191 181 163.8 170C136.7 159 109.3 157 82 160C54.7 163 27.3 171 13.7 175L0 179Z" fill="#c8c8c8"></path><path d="M0 457L13.7 454C27.3 451 54.7 445 82 440C109.3 435 136.7 431 163.8 434C191 437 218 447 245.2 453C272.3 459 299.7 461 327 462C354.3 463 381.7 463 409 454C436.3 445 463.7 427 491 420C518.3 413 545.7 417 573 408C600.3 399 627.7 377 654.8 371C682 365 709 375 736.2 383C763.3 391 790.7 397 818 396C845.3 395 872.7 387 886.3 383L900 379L900 299L886.3 304C872.7 309 845.3 319 818 319C790.7 319 763.3 309 736.2 303C709 297 682 295 654.8 309C627.7 323 600.3 353 573 356C545.7 359 518.3 335 491 337C463.7 339 436.3 367 409 378C381.7 389 354.3 383 327 378C299.7 373 272.3 369 245.2 365C218 361 191 357 163.8 357C136.7 357 109.3 361 82 369C54.7 377 27.3 389 13.7 395L0 401Z" fill="#939393"></path><path d="M0 535L13.7 534C27.3 533 54.7 531 82 521C109.3 511 136.7 493 163.8 490C191 487 218 499 245.2 512C272.3 525 299.7 539 327 547C354.3 555 381.7 557 409 551C436.3 545 463.7 531 491 518C518.3 505 545.7 493 573 491C600.3 489 627.7 497 654.8 501C682 505 709 505 736.2 503C763.3 501 790.7 497 818 495C845.3 493 872.7 493 886.3 493L900 493L900 377L886.3 381C872.7 385 845.3 393 818 394C790.7 395 763.3 389 736.2 381C709 373 682 363 654.8 369C627.7 375 600.3 397 573 406C545.7 415 518.3 411 491 418C463.7 425 436.3 443 409 452C381.7 461 354.3 461 327 460C299.7 459 272.3 457 245.2 451C218 445 191 435 163.8 432C136.7 429 109.3 433 82 438C54.7 443 27.3 449 13.7 452L0 455Z" fill="#626262"></path><path d="M0 601L13.7 601C27.3 601 54.7 601 82 601C109.3 601 136.7 601 163.8 601C191 601 218 601 245.2 601C272.3 601 299.7 601 327 601C354.3 601 381.7 601 409 601C436.3 601 463.7 601 491 601C518.3 601 545.7 601 573 601C600.3 601 627.7 601 654.8 601C682 601 709 601 736.2 601C763.3 601 790.7 601 818 601C845.3 601 872.7 601 886.3 601L900 601L900 491L886.3 491C872.7 491 845.3 491 818 493C790.7 495 763.3 499 736.2 501C709 503 682 503 654.8 499C627.7 495 600.3 487 573 489C545.7 491 518.3 503 491 516C463.7 529 436.3 543 409 549C381.7 555 354.3 553 327 545C299.7 537 272.3 523 245.2 510C218 497 191 485 163.8 488C136.7 491 109.3 509 82 519C54.7 529 27.3 531 13.7 532L0 533Z" fill="#353535"></path></svg>